<svg id="visual" viewBox="0 0 1200 400" width="1200" height="400" xmlns="http://www.w3.org/2000/svg" xmlns:xlink="http://www.w3.org/1999/xlink" version="1.1"><rect x="0" y="0" width="1200" height="400" fill="#1b1f50"></rect><path d="M0 214L28.5 229.5C57 245 114 276 171.2 275.3C228.3 274.7 285.7 242.3 342.8 236.8C400 231.3 457 252.7 514.2 260C571.3 267.3 628.7 260.7 685.8 251.3C743 242 800 230 857.2 235.2C914.3 240.3 971.7 262.7 1028.8 265C1086 267.3 1143 249.7 1171.5 240.8L1200 232L1200 0L1171.5 0C1143 0 1086 0 1028.8 0C971.7 0 914.3 0 857.2 0C800 0 743 0 685.8 0C628.7 0 571.3 0 514.2 0C457 0 400 0 342.8 0C285.7 0 228.3 0 171.2 0C114 0 57 0 28.5 0L0 0Z" fill="#4328b7"></path><path d="M0 270L28.5 260C57 250 114 230 171.2 213.5C228.3 197 285.7 184 342.8 189.2C400 194.3 457 217.7 514.2 219.8C571.3 222 628.7 203 685.8 203C743 203 800 222 857.2 217.8C914.3 213.7 971.7 186.3 1028.8 185C1086 183.7 1143 208.3 1171.5 220.7L1200 233L1200 0L1171.5 0C1143 0 1086 0 1028.8 0C971.7 0 914.3 0 857.2 0C800 0 743 0 685.8 0C628.7 0 571.3 0 514.2 0C457 0 400 0 342.8 0C285.7 0 228.3 0 171.2 0C114 0 57 0 28.5 0L0 0Z" fill="#3c24a3"></path><path d="M0 188L28.5 186.7C57 185.3 114 182.7 171.2 178.5C228.3 174.3 285.7 168.7 342.8 164C400 159.3 457 155.7 514.2 148.7C571.3 141.7 628.7 131.3 685.8 139.7C743 148 800 175 857.2 187.8C914.3 200.7 971.7 199.3 1028.8 200.7C1086 202 1143 206 1171.5 208L1200 210L1200 0L1171.5 0C1143 0 1086 0 1028.8 0C971.7 0 914.3 0 857.2 0C800 0 743 0 685.8 0C628.7 0 571.3 0 514.2 0C457 0 400 0 342.8 0C285.7 0 228.3 0 171.2 0C114 0 57 0 28.5 0L0 0Z" fill="#352090"></path><path d="M0 135L28.5 133.5C57 132 114 129 171.2 130.2C228.3 131.3 285.7 136.7 342.8 130.3C400 124 457 106 514.2 105.2C571.3 104.3 628.7 120.7 685.8 119.8C743 119 800 101 857.2 93.3C914.3 85.7 971.7 88.3 1028.8 96.5C1086 104.7 1143 118.3 1171.5 125.2L1200 132L1200 0L1171.5 0C1143 0 1086 0 1028.8 0C971.7 0 914.3 0 857.2 0C800 0 743 0 685.8 0C628.7 0 571.3 0 514.2 0C457 0 400 0 342.8 0C285.7 0 228.3 0 171.2 0C114 0 57 0 28.5 0L0 0Z" fill="#2e1c7d"></path><path d="M0 90L28.5 83.5C57 77 114 64 171.2 64.2C228.3 64.3 285.7 77.7 342.8 82.2C400 86.7 457 82.3 514.2 77.5C571.3 72.7 628.7 67.3 685.8 69.2C743 71 800 80 857.2 78C914.3 76 971.7 63 1028.8 56.7C1086 50.3 1143 50.7 1171.5 50.8L1200 51L1200 0L1171.5 0C1143 0 1086 0 1028.8 0C971.7 0 914.3 0 857.2 0C800 0 743 0 685.8 0C628.7 0 571.3 0 514.2 0C457 0 400 0 342.8 0C285.7 0 228.3 0 171.2 0C114 0 57 0 28.5 0L0 0Z" fill="#28186a"></path></svg>