<svg id="visual" viewBox="0 0 350 25" width="350" height="25" xmlns="http://www.w3.org/2000/svg" xmlns:xlink="http://www.w3.org/1999/xlink" version="1.1"><rect x="0" y="0" width="350" height="25" fill="#1b1f50"></rect><path d="M0 7L8.3 7C16.7 7 33.3 7 50 8.8C66.7 10.7 83.3 14.3 100 15.2C116.7 16 133.3 14 150 12C166.7 10 183.3 8 200 6.7C216.7 5.3 233.3 4.7 250 6.5C266.7 8.3 283.3 12.7 300 14.3C316.7 16 333.3 15 341.7 14.5L350 14L350 26L341.7 26C333.3 26 316.7 26 300 26C283.3 26 266.7 26 250 26C233.3 26 216.7 26 200 26C183.3 26 166.7 26 150 26C133.3 26 116.7 26 100 26C83.3 26 66.7 26 50 26C33.3 26 16.7 26 8.3 26L0 26Z" fill="#28186A" stroke-linecap="round" stroke-linejoin="miter"></path></svg>