<svg id="visual" viewBox="0 0 900 600" width="900" height="600" xmlns="http://www.w3.org/2000/svg" xmlns:xlink="http://www.w3.org/1999/xlink" version="1.1"><rect x="0" y="0" width="900" height="600" fill="#0c1145"></rect><defs><linearGradient id="grad1_0" x1="33.3%" y1="0%" x2="100%" y2="100%"><stop offset="20%" stop-color="#c42456" stop-opacity="1"></stop><stop offset="80%" stop-color="#c42456" stop-opacity="1"></stop></linearGradient></defs><defs><linearGradient id="grad1_1" x1="33.3%" y1="0%" x2="100%" y2="100%"><stop offset="20%" stop-color="#c42456" stop-opacity="1"></stop><stop offset="80%" stop-color="#0c1145" stop-opacity="1"></stop></linearGradient></defs><defs><linearGradient id="grad2_0" x1="0%" y1="0%" x2="66.7%" y2="100%"><stop offset="20%" stop-color="#c42456" stop-opacity="1"></stop><stop offset="80%" stop-color="#c42456" stop-opacity="1"></stop></linearGradient></defs><defs><linearGradient id="grad2_1" x1="0%" y1="0%" x2="66.7%" y2="100%"><stop offset="20%" stop-color="#0c1145" stop-opacity="1"></stop><stop offset="80%" stop-color="#c42456" stop-opacity="1"></stop></linearGradient></defs><g transform="translate(900, 0)"><path d="M0 189.3C-14 186.4 -28 183.4 -40.7 178.4C-53.4 173.4 -64.7 166.3 -77.7 161.3C-90.6 156.2 -105.2 153.2 -116 145.4C-126.7 137.6 -133.7 125 -143.1 114.1C-152.5 103.2 -164.4 94.2 -170.5 82.1C-176.7 70.1 -177.2 55.1 -179.4 40.9C-181.6 26.8 -185.4 13.4 -189.3 0L0 0Z" fill="#70135f"></path><path d="M0 94.6C-7 93.2 -14 91.7 -20.4 89.2C-26.7 86.7 -32.4 83.2 -38.8 80.6C-45.3 78.1 -52.6 76.6 -58 72.7C-63.4 68.8 -66.8 62.5 -71.5 57C-76.2 51.6 -82.2 47.1 -85.3 41.1C-88.4 35.1 -88.6 27.6 -89.7 20.5C-90.8 13.4 -92.7 6.7 -94.6 0L0 0Z" fill="#c42456"></path></g><g transform="translate(0, 600)"><path d="M0 -189.3C12.8 -182.9 25.7 -176.5 39.8 -174.5C54 -172.6 69.5 -175.1 82.1 -170.5C94.8 -166 104.6 -154.4 115.3 -144.6C126.1 -134.9 137.6 -126.9 145.4 -116C153.2 -105 157.3 -91 162.2 -78.1C167.1 -65.2 172.8 -53.3 177.4 -40.5C182.1 -27.7 185.7 -13.8 189.3 0L0 0Z" fill="#70135f"></path><path d="M0 -94.6C6.4 -91.4 12.8 -88.2 19.9 -87.3C27 -86.3 34.7 -87.5 41.1 -85.3C47.4 -83 52.3 -77.2 57.7 -72.3C63 -67.4 68.8 -63.5 72.7 -58C76.6 -52.5 78.6 -45.5 81.1 -39C83.5 -32.6 86.4 -26.7 88.7 -20.2C91 -13.8 92.8 -6.9 94.6 0L0 0Z" fill="#c42456"></path></g></svg>