<svg id="visual" viewBox="0 0 1200 400" width="1200" height="400" xmlns="http://www.w3.org/2000/svg" xmlns:xlink="http://www.w3.org/1999/xlink" version="1.1"><rect x="0" y="0" width="1200" height="400" fill="#e20b4f"></rect><path d="M0 167L28.5 159.5C57 152 114 137 171.2 126.2C228.3 115.3 285.7 108.7 342.8 111.2C400 113.7 457 125.3 514.2 127.7C571.3 130 628.7 123 685.8 117.7C743 112.3 800 108.7 857.2 110.5C914.3 112.3 971.7 119.7 1028.8 127.2C1086 134.7 1143 142.3 1171.5 146.2L1200 150L1200 401L1171.5 401C1143 401 1086 401 1028.8 401C971.7 401 914.3 401 857.2 401C800 401 743 401 685.8 401C628.7 401 571.3 401 514.2 401C457 401 400 401 342.8 401C285.7 401 228.3 401 171.2 401C114 401 57 401 28.5 401L0 401Z" fill="#4328b7"></path><path d="M0 145L28.5 152.3C57 159.7 114 174.3 171.2 182.2C228.3 190 285.7 191 342.8 196.7C400 202.3 457 212.7 514.2 202.5C571.3 192.3 628.7 161.7 685.8 160.8C743 160 800 189 857.2 198.7C914.3 208.3 971.7 198.7 1028.8 184.8C1086 171 1143 153 1171.5 144L1200 135L1200 401L1171.5 401C1143 401 1086 401 1028.8 401C971.7 401 914.3 401 857.2 401C800 401 743 401 685.8 401C628.7 401 571.3 401 514.2 401C457 401 400 401 342.8 401C285.7 401 228.3 401 171.2 401C114 401 57 401 28.5 401L0 401Z" fill="#3c24a3"></path><path d="M0 186L28.5 189.8C57 193.7 114 201.3 171.2 215.3C228.3 229.3 285.7 249.7 342.8 248.8C400 248 457 226 514.2 222.3C571.3 218.7 628.7 233.3 685.8 243C743 252.7 800 257.3 857.2 249.8C914.3 242.3 971.7 222.7 1028.8 215.7C1086 208.7 1143 214.3 1171.5 217.2L1200 220L1200 401L1171.5 401C1143 401 1086 401 1028.8 401C971.7 401 914.3 401 857.2 401C800 401 743 401 685.8 401C628.7 401 571.3 401 514.2 401C457 401 400 401 342.8 401C285.7 401 228.3 401 171.2 401C114 401 57 401 28.5 401L0 401Z" fill="#352090"></path><path d="M0 311L28.5 313C57 315 114 319 171.2 315.5C228.3 312 285.7 301 342.8 300.2C400 299.3 457 308.7 514.2 302.8C571.3 297 628.7 276 685.8 276C743 276 800 297 857.2 300.7C914.3 304.3 971.7 290.7 1028.8 288.3C1086 286 1143 295 1171.5 299.5L1200 304L1200 401L1171.5 401C1143 401 1086 401 1028.8 401C971.7 401 914.3 401 857.2 401C800 401 743 401 685.8 401C628.7 401 571.3 401 514.2 401C457 401 400 401 342.8 401C285.7 401 228.3 401 171.2 401C114 401 57 401 28.5 401L0 401Z" fill="#2e1c7d"></path><path d="M0 344L28.5 338.2C57 332.3 114 320.7 171.2 320.7C228.3 320.7 285.7 332.3 342.8 340.2C400 348 457 352 514.2 355C571.3 358 628.7 360 685.8 356.3C743 352.7 800 343.3 857.2 343C914.3 342.7 971.7 351.3 1028.8 350.8C1086 350.3 1143 340.7 1171.5 335.8L1200 331L1200 401L1171.5 401C1143 401 1086 401 1028.8 401C971.7 401 914.3 401 857.2 401C800 401 743 401 685.8 401C628.7 401 571.3 401 514.2 401C457 401 400 401 342.8 401C285.7 401 228.3 401 171.2 401C114 401 57 401 28.5 401L0 401Z" fill="#28186a"></path></svg>