<svg id="visual" viewBox="0 0 1200 200" width="1200" height="200" xmlns="http://www.w3.org/2000/svg" xmlns:xlink="http://www.w3.org/1999/xlink" version="1.1"><rect x="0" y="0" width="1200" height="200" fill="#1b1f50"></rect><path d="M0 161L28.5 154.3C57 147.7 114 134.3 171.2 127C228.3 119.7 285.7 118.3 342.8 122.2C400 126 457 135 514.2 130.3C571.3 125.7 628.7 107.3 685.8 94.7C743 82 800 75 857.2 83.2C914.3 91.3 971.7 114.7 1028.8 123C1086 131.3 1143 124.7 1171.5 121.3L1200 118L1200 0L1171.5 0C1143 0 1086 0 1028.8 0C971.7 0 914.3 0 857.2 0C800 0 743 0 685.8 0C628.7 0 571.3 0 514.2 0C457 0 400 0 342.8 0C285.7 0 228.3 0 171.2 0C114 0 57 0 28.5 0L0 0Z" fill="#4328B7" stroke-linecap="round" stroke-linejoin="miter"></path></svg>