<svg id="visual" viewBox="0 0 1200 200" width="1200" height="200" xmlns="http://www.w3.org/2000/svg" xmlns:xlink="http://www.w3.org/1999/xlink" version="1.1"><rect x="0" y="0" width="1200" height="200" fill="#1b1f50"></rect><path d="M0 105L18.2 103.7C36.3 102.3 72.7 99.7 109 108.5C145.3 117.3 181.7 137.7 218 145.3C254.3 153 290.7 148 327 141.5C363.3 135 399.7 127 436 114.5C472.3 102 508.7 85 545.2 70.3C581.7 55.7 618.3 43.3 654.8 37.5C691.3 31.7 727.7 32.3 764 52.3C800.3 72.3 836.7 111.7 873 124.5C909.3 137.3 945.7 123.7 982 123C1018.3 122.3 1054.7 134.7 1091 133C1127.3 131.3 1163.7 115.7 1181.8 107.8L1200 100L1200 0L1181.8 0C1163.7 0 1127.3 0 1091 0C1054.7 0 1018.3 0 982 0C945.7 0 909.3 0 873 0C836.7 0 800.3 0 764 0C727.7 0 691.3 0 654.8 0C618.3 0 581.7 0 545.2 0C508.7 0 472.3 0 436 0C399.7 0 363.3 0 327 0C290.7 0 254.3 0 218 0C181.7 0 145.3 0 109 0C72.7 0 36.3 0 18.2 0L0 0Z" fill="#4328B7" stroke-linecap="round" stroke-linejoin="miter"></path></svg>