<svg id="visual" viewBox="0 0 1200 400" width="1200" height="400" xmlns="http://www.w3.org/2000/svg" xmlns:xlink="http://www.w3.org/1999/xlink" version="1.1"><rect x="0" y="0" width="1200" height="400" fill="#4328B7"></rect><path d="M0 88L33.3 101.2C66.7 114.3 133.3 140.7 200 146.8C266.7 153 333.3 139 400 121.2C466.7 103.3 533.3 81.7 600 92.7C666.7 103.7 733.3 147.3 800 168.7C866.7 190 933.3 189 1000 173.2C1066.7 157.3 1133.3 126.7 1166.7 111.3L1200 96L1200 401L1166.7 401C1133.3 401 1066.7 401 1000 401C933.3 401 866.7 401 800 401C733.3 401 666.7 401 600 401C533.3 401 466.7 401 400 401C333.3 401 266.7 401 200 401C133.3 401 66.7 401 33.3 401L0 401Z" fill="#28186a"></path><path d="M0 205L33.3 213.3C66.7 221.7 133.3 238.3 200 225.3C266.7 212.3 333.3 169.7 400 175.2C466.7 180.7 533.3 234.3 600 243.2C666.7 252 733.3 216 800 194.2C866.7 172.3 933.3 164.7 1000 168.7C1066.7 172.7 1133.3 188.3 1166.7 196.2L1200 204L1200 401L1166.7 401C1133.3 401 1066.7 401 1000 401C933.3 401 866.7 401 800 401C733.3 401 666.7 401 600 401C533.3 401 466.7 401 400 401C333.3 401 266.7 401 200 401C133.3 401 66.7 401 33.3 401L0 401Z" fill="#231b64"></path><path d="M0 208L33.3 204.7C66.7 201.3 133.3 194.7 200 206.8C266.7 219 333.3 250 400 255.8C466.7 261.7 533.3 242.3 600 224C666.7 205.7 733.3 188.3 800 185.7C866.7 183 933.3 195 1000 196C1066.7 197 1133.3 187 1166.7 182L1200 177L1200 401L1166.7 401C1133.3 401 1066.7 401 1000 401C933.3 401 866.7 401 800 401C733.3 401 666.7 401 600 401C533.3 401 466.7 401 400 401C333.3 401 266.7 401 200 401C133.3 401 66.7 401 33.3 401L0 401Z" fill="#1f1d5e"></path><path d="M0 267L33.3 280C66.7 293 133.3 319 200 328.5C266.7 338 333.3 331 400 318.2C466.7 305.3 533.3 286.7 600 275.8C666.7 265 733.3 262 800 267.7C866.7 273.3 933.3 287.7 1000 295.3C1066.7 303 1133.3 304 1166.7 304.5L1200 305L1200 401L1166.7 401C1133.3 401 1066.7 401 1000 401C933.3 401 866.7 401 800 401C733.3 401 666.7 401 600 401C533.3 401 466.7 401 400 401C333.3 401 266.7 401 200 401C133.3 401 66.7 401 33.3 401L0 401Z" fill="#1c1e57"></path><path d="M0 362L33.3 355.2C66.7 348.3 133.3 334.7 200 337C266.7 339.3 333.3 357.7 400 354.5C466.7 351.3 533.3 326.7 600 324.7C666.7 322.7 733.3 343.3 800 352C866.7 360.7 933.3 357.3 1000 354.3C1066.7 351.3 1133.3 348.7 1166.7 347.3L1200 346L1200 401L1166.7 401C1133.3 401 1066.7 401 1000 401C933.3 401 866.7 401 800 401C733.3 401 666.7 401 600 401C533.3 401 466.7 401 400 401C333.3 401 266.7 401 200 401C133.3 401 66.7 401 33.3 401L0 401Z" fill="#1b1f50"></path></svg>