<svg id="visual" viewBox="0 0 1200 400" width="1200" height="400" xmlns="http://www.w3.org/2000/svg" xmlns:xlink="http://www.w3.org/1999/xlink" version="1.1"><rect x="0" y="0" width="1200" height="400" fill="#001220"></rect><path d="M0 93L28.5 91.8C57 90.7 114 88.3 171.2 101.7C228.3 115 285.7 144 342.8 143.5C400 143 457 113 514.2 100.2C571.3 87.3 628.7 91.7 685.8 110.5C743 129.3 800 162.7 857.2 178.8C914.3 195 971.7 194 1028.8 183.7C1086 173.3 1143 153.7 1171.5 143.8L1200 134L1200 401L1171.5 401C1143 401 1086 401 1028.8 401C971.7 401 914.3 401 857.2 401C800 401 743 401 685.8 401C628.7 401 571.3 401 514.2 401C457 401 400 401 342.8 401C285.7 401 228.3 401 171.2 401C114 401 57 401 28.5 401L0 401Z" fill="#4328b7"></path><path d="M0 214L28.5 215.7C57 217.3 114 220.7 171.2 207.5C228.3 194.3 285.7 164.7 342.8 158.5C400 152.3 457 169.7 514.2 176.8C571.3 184 628.7 181 685.8 189.7C743 198.3 800 218.7 857.2 213.5C914.3 208.3 971.7 177.7 1028.8 166.2C1086 154.7 1143 162.3 1171.5 166.2L1200 170L1200 401L1171.5 401C1143 401 1086 401 1028.8 401C971.7 401 914.3 401 857.2 401C800 401 743 401 685.8 401C628.7 401 571.3 401 514.2 401C457 401 400 401 342.8 401C285.7 401 228.3 401 171.2 401C114 401 57 401 28.5 401L0 401Z" fill="#3c24a3"></path><path d="M0 261L28.5 262.7C57 264.3 114 267.7 171.2 259.7C228.3 251.7 285.7 232.3 342.8 219.8C400 207.3 457 201.7 514.2 206.5C571.3 211.3 628.7 226.7 685.8 227C743 227.3 800 212.7 857.2 213.3C914.3 214 971.7 230 1028.8 233.8C1086 237.7 1143 229.3 1171.5 225.2L1200 221L1200 401L1171.5 401C1143 401 1086 401 1028.8 401C971.7 401 914.3 401 857.2 401C800 401 743 401 685.8 401C628.7 401 571.3 401 514.2 401C457 401 400 401 342.8 401C285.7 401 228.3 401 171.2 401C114 401 57 401 28.5 401L0 401Z" fill="#352090"></path><path d="M0 306L28.5 306.2C57 306.3 114 306.7 171.2 309.2C228.3 311.7 285.7 316.3 342.8 315C400 313.7 457 306.3 514.2 301.5C571.3 296.7 628.7 294.3 685.8 288C743 281.7 800 271.3 857.2 272.7C914.3 274 971.7 287 1028.8 288C1086 289 1143 278 1171.5 272.5L1200 267L1200 401L1171.5 401C1143 401 1086 401 1028.8 401C971.7 401 914.3 401 857.2 401C800 401 743 401 685.8 401C628.7 401 571.3 401 514.2 401C457 401 400 401 342.8 401C285.7 401 228.3 401 171.2 401C114 401 57 401 28.5 401L0 401Z" fill="#2e1c7d"></path><path d="M0 332L28.5 334.7C57 337.3 114 342.7 171.2 341.7C228.3 340.7 285.7 333.3 342.8 327.5C400 321.7 457 317.3 514.2 313.3C571.3 309.3 628.7 305.7 685.8 305.7C743 305.7 800 309.3 857.2 315.7C914.3 322 971.7 331 1028.8 334.2C1086 337.3 1143 334.7 1171.5 333.3L1200 332L1200 401L1171.5 401C1143 401 1086 401 1028.8 401C971.7 401 914.3 401 857.2 401C800 401 743 401 685.8 401C628.7 401 571.3 401 514.2 401C457 401 400 401 342.8 401C285.7 401 228.3 401 171.2 401C114 401 57 401 28.5 401L0 401Z" fill="#28186a"></path></svg>