<svg id="visual" viewBox="0 0 1200 400" width="1200" height="400" xmlns="http://www.w3.org/2000/svg" xmlns:xlink="http://www.w3.org/1999/xlink" version="1.1"><rect x="0" y="0" width="1200" height="400" fill="#1b1f50"></rect><path d="M0 143L50 149.2C100 155.3 200 167.7 300 155.3C400 143 500 106 600 123.7C700 141.3 800 213.7 900 226.8C1000 240 1100 194 1150 171L1200 148L1200 401L1150 401C1100 401 1000 401 900 401C800 401 700 401 600 401C500 401 400 401 300 401C200 401 100 401 50 401L0 401Z" fill="#e20b4f" stroke-linecap="round" stroke-linejoin="miter"></path></svg>