<svg id="visual" viewBox="0 0 1200 400" width="1200" height="400" xmlns="http://www.w3.org/2000/svg" xmlns:xlink="http://www.w3.org/1999/xlink" version="1.1"><rect x="0" y="0" width="1200" height="400" fill="#1b1f50"></rect><path d="M0 196L50 213.8C100 231.7 200 267.3 300 253.2C400 239 500 175 600 150.5C700 126 800 141 900 156.3C1000 171.7 1100 187.3 1150 195.2L1200 203L1200 401L1150 401C1100 401 1000 401 900 401C800 401 700 401 600 401C500 401 400 401 300 401C200 401 100 401 50 401L0 401Z" fill="#4328B7" stroke-linecap="round" stroke-linejoin="miter"></path></svg>