<svg id="visual" viewBox="0 0 960 200" width="960" height="200" xmlns="http://www.w3.org/2000/svg" xmlns:xlink="http://www.w3.org/1999/xlink" version="1.1"><rect x="0" y="0" width="960" height="200" fill="#001220"></rect><path d="M0 145L22.8 146.8C45.7 148.7 91.3 152.3 137 145.7C182.7 139 228.3 122 274 115.2C319.7 108.3 365.3 111.7 411.2 117.3C457 123 503 131 548.8 129C594.7 127 640.3 115 686 110.7C731.7 106.3 777.3 109.7 823 117.7C868.7 125.7 914.3 138.3 937.2 144.7L960 151L960 0L937.2 0C914.3 0 868.7 0 823 0C777.3 0 731.7 0 686 0C640.3 0 594.7 0 548.8 0C503 0 457 0 411.2 0C365.3 0 319.7 0 274 0C228.3 0 182.7 0 137 0C91.3 0 45.7 0 22.8 0L0 0Z" fill="#4328b7"></path><path d="M0 83L22.8 85.3C45.7 87.7 91.3 92.3 137 91.8C182.7 91.3 228.3 85.7 274 86.8C319.7 88 365.3 96 411.2 103.2C457 110.3 503 116.7 548.8 113.3C594.7 110 640.3 97 686 98.2C731.7 99.3 777.3 114.7 823 123.2C868.7 131.7 914.3 133.3 937.2 134.2L960 135L960 0L937.2 0C914.3 0 868.7 0 823 0C777.3 0 731.7 0 686 0C640.3 0 594.7 0 548.8 0C503 0 457 0 411.2 0C365.3 0 319.7 0 274 0C228.3 0 182.7 0 137 0C91.3 0 45.7 0 22.8 0L0 0Z" fill="#3c24a3"></path><path d="M0 62L22.8 64C45.7 66 91.3 70 137 70C182.7 70 228.3 66 274 70C319.7 74 365.3 86 411.2 86.3C457 86.7 503 75.3 548.8 71.3C594.7 67.3 640.3 70.7 686 71C731.7 71.3 777.3 68.7 823 73.3C868.7 78 914.3 90 937.2 96L960 102L960 0L937.2 0C914.3 0 868.7 0 823 0C777.3 0 731.7 0 686 0C640.3 0 594.7 0 548.8 0C503 0 457 0 411.2 0C365.3 0 319.7 0 274 0C228.3 0 182.7 0 137 0C91.3 0 45.7 0 22.8 0L0 0Z" fill="#352090"></path><path d="M0 63L22.8 64.5C45.7 66 91.3 69 137 69.7C182.7 70.3 228.3 68.7 274 68.5C319.7 68.3 365.3 69.7 411.2 66.5C457 63.3 503 55.7 548.8 53.5C594.7 51.3 640.3 54.7 686 56.8C731.7 59 777.3 60 823 61C868.7 62 914.3 63 937.2 63.5L960 64L960 0L937.2 0C914.3 0 868.7 0 823 0C777.3 0 731.7 0 686 0C640.3 0 594.7 0 548.8 0C503 0 457 0 411.2 0C365.3 0 319.7 0 274 0C228.3 0 182.7 0 137 0C91.3 0 45.7 0 22.8 0L0 0Z" fill="#2e1c7d"></path><path d="M0 35L22.8 32C45.7 29 91.3 23 137 24.3C182.7 25.7 228.3 34.3 274 34.7C319.7 35 365.3 27 411.2 24.3C457 21.7 503 24.3 548.8 25.2C594.7 26 640.3 25 686 27.3C731.7 29.7 777.3 35.3 823 38.8C868.7 42.3 914.3 43.7 937.2 44.3L960 45L960 0L937.2 0C914.3 0 868.7 0 823 0C777.3 0 731.7 0 686 0C640.3 0 594.7 0 548.8 0C503 0 457 0 411.2 0C365.3 0 319.7 0 274 0C228.3 0 182.7 0 137 0C91.3 0 45.7 0 22.8 0L0 0Z" fill="#28186a"></path></svg>