<svg id="visual" viewBox="0 0 1200 200" width="1200" height="200" xmlns="http://www.w3.org/2000/svg" xmlns:xlink="http://www.w3.org/1999/xlink" version="1.1"><rect x="0" y="0" width="1200" height="200" fill="#1b1f50"></rect><path d="M0 34L18.2 50.5C36.3 67 72.7 100 109 106.8C145.3 113.7 181.7 94.3 218 95.2C254.3 96 290.7 117 327 126.5C363.3 136 399.7 134 436 126.7C472.3 119.3 508.7 106.7 545.2 106C581.7 105.3 618.3 116.7 654.8 125.5C691.3 134.3 727.7 140.7 764 140.3C800.3 140 836.7 133 873 119.7C909.3 106.3 945.7 86.7 982 75.8C1018.3 65 1054.7 63 1091 77.5C1127.3 92 1163.7 123 1181.8 138.5L1200 154L1200 201L1181.8 201C1163.7 201 1127.3 201 1091 201C1054.7 201 1018.3 201 982 201C945.7 201 909.3 201 873 201C836.7 201 800.3 201 764 201C727.7 201 691.3 201 654.8 201C618.3 201 581.7 201 545.2 201C508.7 201 472.3 201 436 201C399.7 201 363.3 201 327 201C290.7 201 254.3 201 218 201C181.7 201 145.3 201 109 201C72.7 201 36.3 201 18.2 201L0 201Z" fill="#4328B7" stroke-linecap="round" stroke-linejoin="miter"></path></svg>