<svg id="visual" viewBox="0 0 900 600" width="900" height="600" xmlns="http://www.w3.org/2000/svg" xmlns:xlink="http://www.w3.org/1999/xlink" version="1.1"><rect x="0" y="0" width="900" height="600" fill="#0c1145"></rect><defs><linearGradient id="grad1_0" x1="33.3%" y1="100%" x2="100%" y2="0%"><stop offset="20%" stop-color="#c42456" stop-opacity="1"></stop><stop offset="80%" stop-color="#c42456" stop-opacity="1"></stop></linearGradient></defs><defs><linearGradient id="grad1_1" x1="33.3%" y1="100%" x2="100%" y2="0%"><stop offset="20%" stop-color="#c42456" stop-opacity="1"></stop><stop offset="80%" stop-color="#ae185c" stop-opacity="1"></stop></linearGradient></defs><defs><linearGradient id="grad1_2" x1="33.3%" y1="100%" x2="100%" y2="0%"><stop offset="20%" stop-color="#96135f" stop-opacity="1"></stop><stop offset="80%" stop-color="#ae185c" stop-opacity="1"></stop></linearGradient></defs><defs><linearGradient id="grad1_3" x1="33.3%" y1="100%" x2="100%" y2="0%"><stop offset="20%" stop-color="#96135f" stop-opacity="1"></stop><stop offset="80%" stop-color="#7d1360" stop-opacity="1"></stop></linearGradient></defs><defs><linearGradient id="grad1_4" x1="33.3%" y1="100%" x2="100%" y2="0%"><stop offset="20%" stop-color="#63145d" stop-opacity="1"></stop><stop offset="80%" stop-color="#7d1360" stop-opacity="1"></stop></linearGradient></defs><defs><linearGradient id="grad1_5" x1="33.3%" y1="100%" x2="100%" y2="0%"><stop offset="20%" stop-color="#63145d" stop-opacity="1"></stop><stop offset="80%" stop-color="#481558" stop-opacity="1"></stop></linearGradient></defs><defs><linearGradient id="grad1_6" x1="33.3%" y1="100%" x2="100%" y2="0%"><stop offset="20%" stop-color="#2c1450" stop-opacity="1"></stop><stop offset="80%" stop-color="#481558" stop-opacity="1"></stop></linearGradient></defs><defs><linearGradient id="grad1_7" x1="33.3%" y1="100%" x2="100%" y2="0%"><stop offset="20%" stop-color="#2c1450" stop-opacity="1"></stop><stop offset="80%" stop-color="#0c1145" stop-opacity="1"></stop></linearGradient></defs><defs><linearGradient id="grad2_0" x1="0%" y1="100%" x2="66.7%" y2="0%"><stop offset="20%" stop-color="#c42456" stop-opacity="1"></stop><stop offset="80%" stop-color="#c42456" stop-opacity="1"></stop></linearGradient></defs><defs><linearGradient id="grad2_1" x1="0%" y1="100%" x2="66.7%" y2="0%"><stop offset="20%" stop-color="#ae185c" stop-opacity="1"></stop><stop offset="80%" stop-color="#c42456" stop-opacity="1"></stop></linearGradient></defs><defs><linearGradient id="grad2_2" x1="0%" y1="100%" x2="66.7%" y2="0%"><stop offset="20%" stop-color="#ae185c" stop-opacity="1"></stop><stop offset="80%" stop-color="#96135f" stop-opacity="1"></stop></linearGradient></defs><defs><linearGradient id="grad2_3" x1="0%" y1="100%" x2="66.7%" y2="0%"><stop offset="20%" stop-color="#7d1360" stop-opacity="1"></stop><stop offset="80%" stop-color="#96135f" stop-opacity="1"></stop></linearGradient></defs><defs><linearGradient id="grad2_4" x1="0%" y1="100%" x2="66.7%" y2="0%"><stop offset="20%" stop-color="#7d1360" stop-opacity="1"></stop><stop offset="80%" stop-color="#63145d" stop-opacity="1"></stop></linearGradient></defs><defs><linearGradient id="grad2_5" x1="0%" y1="100%" x2="66.7%" y2="0%"><stop offset="20%" stop-color="#481558" stop-opacity="1"></stop><stop offset="80%" stop-color="#63145d" stop-opacity="1"></stop></linearGradient></defs><defs><linearGradient id="grad2_6" x1="0%" y1="100%" x2="66.7%" y2="0%"><stop offset="20%" stop-color="#481558" stop-opacity="1"></stop><stop offset="80%" stop-color="#2c1450" stop-opacity="1"></stop></linearGradient></defs><defs><linearGradient id="grad2_7" x1="0%" y1="100%" x2="66.7%" y2="0%"><stop offset="20%" stop-color="#0c1145" stop-opacity="1"></stop><stop offset="80%" stop-color="#2c1450" stop-opacity="1"></stop></linearGradient></defs><g transform="translate(900, 600)"><path d="M-189.3 0C-183.8 -13.1 -178.3 -26.2 -175.5 -40.1C-172.7 -53.9 -172.6 -68.5 -166.7 -80.3C-160.7 -92 -148.9 -101 -139.9 -111.6C-131 -122.2 -124.9 -134.6 -116 -145.4C-107 -156.3 -95.2 -165.6 -82.1 -170.5C-69 -175.5 -54.6 -176 -40.7 -178.4C-26.8 -180.8 -13.4 -185 0 -189.3L0 0Z" fill="#1e134b"></path><path d="M-165.6 0C-160.8 -11.5 -156 -22.9 -153.6 -35C-151.1 -47.2 -151 -59.9 -145.8 -70.2C-140.6 -80.5 -130.3 -88.3 -122.5 -97.7C-114.6 -107 -109.3 -117.8 -101.5 -127.2C-93.7 -136.7 -83.3 -144.9 -71.9 -149.2C-60.4 -153.5 -47.8 -154 -35.6 -156.1C-23.5 -158.2 -11.7 -161.9 0 -165.6L0 0Z" fill="#3a1554"></path><path d="M-142 0C-137.8 -9.8 -133.7 -19.7 -131.6 -30C-129.5 -40.4 -129.5 -51.4 -125 -60.2C-120.5 -69 -111.7 -75.7 -105 -83.7C-98.2 -91.7 -93.7 -100.9 -87 -109.1C-80.3 -117.2 -71.4 -124.2 -61.6 -127.9C-51.8 -131.6 -41 -132 -30.5 -133.8C-20.1 -135.6 -10.1 -138.8 0 -142L0 0Z" fill="#55155b"></path><path d="M-118.3 0C-114.9 -8.2 -111.4 -16.4 -109.7 -25C-107.9 -33.7 -107.9 -42.8 -104.2 -50.2C-100.5 -57.5 -93.1 -63.1 -87.5 -69.8C-81.9 -76.4 -78.1 -84.1 -72.5 -90.9C-66.9 -97.7 -59.5 -103.5 -51.3 -106.6C-43.1 -109.7 -34.1 -110 -25.5 -111.5C-16.8 -113 -8.4 -115.7 0 -118.3L0 0Z" fill="#70135f"></path><path d="M-94.6 0C-91.9 -6.6 -89.1 -13.1 -87.7 -20C-86.3 -27 -86.3 -34.3 -83.3 -40.1C-80.4 -46 -74.5 -50.5 -70 -55.8C-65.5 -61.1 -62.5 -67.3 -58 -72.7C-53.5 -78.1 -47.6 -82.8 -41.1 -85.3C-34.5 -87.7 -27.3 -88 -20.4 -89.2C-13.4 -90.4 -6.7 -92.5 0 -94.6L0 0Z" fill="#8a1260"></path><path d="M-71 0C-68.9 -4.9 -66.9 -9.8 -65.8 -15C-64.8 -20.2 -64.7 -25.7 -62.5 -30.1C-60.3 -34.5 -55.8 -37.9 -52.5 -41.9C-49.1 -45.8 -46.8 -50.5 -43.5 -54.5C-40.1 -58.6 -35.7 -62.1 -30.8 -64C-25.9 -65.8 -20.5 -66 -15.3 -66.9C-10.1 -67.8 -5 -69.4 0 -71L0 0Z" fill="#a3155e"></path><path d="M-47.3 0C-45.9 -3.3 -44.6 -6.6 -43.9 -10C-43.2 -13.5 -43.2 -17.1 -41.7 -20.1C-40.2 -23 -37.2 -25.2 -35 -27.9C-32.7 -30.6 -31.2 -33.6 -29 -36.4C-26.8 -39.1 -23.8 -41.4 -20.5 -42.6C-17.3 -43.9 -13.7 -44 -10.2 -44.6C-6.7 -45.2 -3.4 -46.3 0 -47.3L0 0Z" fill="#b91e59"></path><path d="M-23.7 0C-23 -1.6 -22.3 -3.3 -21.9 -5C-21.6 -6.7 -21.6 -8.6 -20.8 -10C-20.1 -11.5 -18.6 -12.6 -17.5 -14C-16.4 -15.3 -15.6 -16.8 -14.5 -18.2C-13.4 -19.5 -11.9 -20.7 -10.3 -21.3C-8.6 -21.9 -6.8 -22 -5.1 -22.3C-3.4 -22.6 -1.7 -23.1 0 -23.7L0 0Z" fill="#c42456"></path></g><g transform="translate(0, 0)"><path d="M189.3 0C182.8 12.8 176.3 25.6 174.5 39.8C172.7 54.1 175.6 69.9 170.5 82.1C165.5 94.4 152.4 103.2 142.3 113.5C132.2 123.7 125.2 135.5 115.3 144.6C105.5 153.8 92.9 160.5 80.3 166.7C67.6 172.9 55 178.6 41.6 182.3C28.2 186 14.1 187.6 0 189.3L0 0Z" fill="#1e134b"></path><path d="M165.6 0C159.9 11.2 154.3 22.4 152.7 34.9C151.1 47.3 153.7 61.1 149.2 71.9C144.8 82.6 133.3 90.3 124.5 99.3C115.7 108.3 109.5 118.5 100.9 126.6C92.3 134.6 81.3 140.4 70.2 145.8C59.2 151.3 48.1 156.3 36.4 159.5C24.7 162.8 12.4 164.2 0 165.6L0 0Z" fill="#3a1554"></path><path d="M142 0C137.1 9.6 132.2 19.2 130.9 29.9C129.5 40.6 131.7 52.4 127.9 61.6C124.1 70.8 114.3 77.4 106.7 85.1C99.2 92.8 93.9 101.6 86.5 108.5C79.1 115.4 69.7 120.4 60.2 125C50.7 129.7 41.2 134 31.2 136.7C21.2 139.5 10.6 140.7 0 142L0 0Z" fill="#55155b"></path><path d="M118.3 0C114.2 8 110.2 16 109.1 24.9C108 33.8 109.8 43.7 106.6 51.3C103.4 59 95.2 64.5 88.9 70.9C82.6 77.3 78.2 84.7 72.1 90.4C65.9 96.1 58.1 100.3 50.2 104.2C42.3 108 34.4 111.6 26 113.9C17.6 116.3 8.8 117.3 0 118.3L0 0Z" fill="#70135f"></path><path d="M94.6 0C91.4 6.4 88.2 12.8 87.3 19.9C86.4 27 87.8 34.9 85.3 41.1C82.7 47.2 76.2 51.6 71.1 56.7C66.1 61.9 62.6 67.7 57.7 72.3C52.8 76.9 46.4 80.2 40.1 83.3C33.8 86.4 27.5 89.3 20.8 91.2C14.1 93 7.1 93.8 0 94.6L0 0Z" fill="#8a1260"></path><path d="M71 0C68.5 4.8 66.1 9.6 65.4 14.9C64.8 20.3 65.9 26.2 64 30.8C62 35.4 57.1 38.7 53.4 42.6C49.6 46.4 46.9 50.8 43.3 54.2C39.6 57.7 34.8 60.2 30.1 62.5C25.4 64.8 20.6 67 15.6 68.4C10.6 69.8 5.3 70.4 0 71L0 0Z" fill="#a3155e"></path><path d="M47.3 0C45.7 3.2 44.1 6.4 43.6 10C43.2 13.5 43.9 17.5 42.6 20.5C41.4 23.6 38.1 25.8 35.6 28.4C33.1 30.9 31.3 33.9 28.8 36.2C26.4 38.5 23.2 40.1 20.1 41.7C16.9 43.2 13.7 44.7 10.4 45.6C7.1 46.5 3.5 46.9 0 47.3L0 0Z" fill="#b91e59"></path><path d="M23.7 0C22.8 1.6 22 3.2 21.8 5C21.6 6.8 22 8.7 21.3 10.3C20.7 11.8 19 12.9 17.8 14.2C16.5 15.5 15.6 16.9 14.4 18.1C13.2 19.2 11.6 20.1 10 20.8C8.5 21.6 6.9 22.3 5.2 22.8C3.5 23.3 1.8 23.5 0 23.7L0 0Z" fill="#c42456"></path></g></svg>