<svg id="visual" viewBox="0 0 960 200" width="960" height="200" xmlns="http://www.w3.org/2000/svg" xmlns:xlink="http://www.w3.org/1999/xlink" version="1.1"><rect x="0" y="0" width="960" height="200" fill="#001220"></rect><path d="M0 114L22.8 112.5C45.7 111 91.3 108 137 111.5C182.7 115 228.3 125 274 129.3C319.7 133.7 365.3 132.3 411.2 130.2C457 128 503 125 548.8 127.8C594.7 130.7 640.3 139.3 686 143.2C731.7 147 777.3 146 823 140C868.7 134 914.3 123 937.2 117.5L960 112L960 0L937.2 0C914.3 0 868.7 0 823 0C777.3 0 731.7 0 686 0C640.3 0 594.7 0 548.8 0C503 0 457 0 411.2 0C365.3 0 319.7 0 274 0C228.3 0 182.7 0 137 0C91.3 0 45.7 0 22.8 0L0 0Z" fill="#28186a"></path><path d="M0 121L22.8 120.3C45.7 119.7 91.3 118.3 137 111.5C182.7 104.7 228.3 92.3 274 91.8C319.7 91.3 365.3 102.7 411.2 111C457 119.3 503 124.7 548.8 125.2C594.7 125.7 640.3 121.3 686 112.8C731.7 104.3 777.3 91.7 823 92.5C868.7 93.3 914.3 107.7 937.2 114.8L960 122L960 0L937.2 0C914.3 0 868.7 0 823 0C777.3 0 731.7 0 686 0C640.3 0 594.7 0 548.8 0C503 0 457 0 411.2 0C365.3 0 319.7 0 274 0C228.3 0 182.7 0 137 0C91.3 0 45.7 0 22.8 0L0 0Z" fill="#2e1c7d"></path><path d="M0 91L22.8 92.8C45.7 94.7 91.3 98.3 137 94.3C182.7 90.3 228.3 78.7 274 79.5C319.7 80.3 365.3 93.7 411.2 96C457 98.3 503 89.7 548.8 82C594.7 74.3 640.3 67.7 686 67C731.7 66.3 777.3 71.7 823 77.3C868.7 83 914.3 89 937.2 92L960 95L960 0L937.2 0C914.3 0 868.7 0 823 0C777.3 0 731.7 0 686 0C640.3 0 594.7 0 548.8 0C503 0 457 0 411.2 0C365.3 0 319.7 0 274 0C228.3 0 182.7 0 137 0C91.3 0 45.7 0 22.8 0L0 0Z" fill="#352090"></path><path d="M0 57L22.8 56.7C45.7 56.3 91.3 55.7 137 58.8C182.7 62 228.3 69 274 71.8C319.7 74.7 365.3 73.3 411.2 71.7C457 70 503 68 548.8 68.7C594.7 69.3 640.3 72.7 686 70.8C731.7 69 777.3 62 823 56.5C868.7 51 914.3 47 937.2 45L960 43L960 0L937.2 0C914.3 0 868.7 0 823 0C777.3 0 731.7 0 686 0C640.3 0 594.7 0 548.8 0C503 0 457 0 411.2 0C365.3 0 319.7 0 274 0C228.3 0 182.7 0 137 0C91.3 0 45.7 0 22.8 0L0 0Z" fill="#3c24a3"></path><path d="M0 42L22.8 39.5C45.7 37 91.3 32 137 30.3C182.7 28.7 228.3 30.3 274 33.2C319.7 36 365.3 40 411.2 40.5C457 41 503 38 548.8 37.3C594.7 36.7 640.3 38.3 686 38.7C731.7 39 777.3 38 823 37C868.7 36 914.3 35 937.2 34.5L960 34L960 0L937.2 0C914.3 0 868.7 0 823 0C777.3 0 731.7 0 686 0C640.3 0 594.7 0 548.8 0C503 0 457 0 411.2 0C365.3 0 319.7 0 274 0C228.3 0 182.7 0 137 0C91.3 0 45.7 0 22.8 0L0 0Z" fill="#4328b7"></path></svg>