<svg id="visual" viewBox="0 0 900 600" width="900" height="600" xmlns="http://www.w3.org/2000/svg" xmlns:xlink="http://www.w3.org/1999/xlink" version="1.1"><rect x="0" y="0" width="900" height="600" fill="#0c1145"></rect><defs><linearGradient id="grad1_0" x1="33.3%" y1="0%" x2="100%" y2="100%"><stop offset="20%" stop-color="#0c1145" stop-opacity="1"></stop><stop offset="80%" stop-color="#0c1145" stop-opacity="1"></stop></linearGradient></defs><defs><linearGradient id="grad2_0" x1="0%" y1="0%" x2="66.7%" y2="100%"><stop offset="20%" stop-color="#0c1145" stop-opacity="1"></stop><stop offset="80%" stop-color="#0c1145" stop-opacity="1"></stop></linearGradient></defs><g transform="translate(900, 0)"><path d="M0 189.3C-13.5 185.5 -26.9 181.7 -40.9 179.4C-55 177 -69.6 176.1 -82.1 170.5C-94.7 165 -105.2 154.8 -116 145.4C-126.8 136 -137.9 127.5 -146.2 116.6C-154.5 105.7 -159.8 92.6 -165.8 79.8C-171.7 67.1 -178.3 54.8 -182.3 41.6C-186.3 28.4 -187.8 14.2 -189.3 0L0 0Z" fill="#C42456"></path></g><g transform="translate(0, 600)"><path d="M0 -189.3C13.5 -185.9 26.9 -182.5 41.2 -180.4C55.4 -178.2 70.4 -177.4 82.1 -170.5C93.9 -163.7 102.3 -150.9 112.9 -141.5C123.4 -132.1 136.1 -126 146.2 -116.6C156.3 -107.2 163.7 -94.3 168.5 -81.1C173.3 -67.9 175.4 -54.3 178.4 -40.7C181.4 -27.1 185.4 -13.6 189.3 0L0 0Z" fill="#C42456"></path></g></svg>