<svg id="visual" viewBox="0 0 900 600" width="900" height="600" xmlns="http://www.w3.org/2000/svg" xmlns:xlink="http://www.w3.org/1999/xlink" version="1.1"><rect x="0" y="0" width="900" height="600" fill="#0c1145"></rect><defs><linearGradient id="grad1_0" x1="33.3%" y1="100%" x2="100%" y2="0%"><stop offset="20%" stop-color="#0c1145" stop-opacity="1"></stop><stop offset="80%" stop-color="#0c1145" stop-opacity="1"></stop></linearGradient></defs><defs><linearGradient id="grad2_0" x1="0%" y1="100%" x2="66.7%" y2="0%"><stop offset="20%" stop-color="#0c1145" stop-opacity="1"></stop><stop offset="80%" stop-color="#0c1145" stop-opacity="1"></stop></linearGradient></defs><g transform="translate(900, 600)"><path d="M-189.3 0C-186 -13.7 -182.7 -27.5 -179.4 -40.9C-176 -54.4 -172.6 -67.6 -167.6 -80.7C-162.5 -93.8 -155.9 -106.9 -146.2 -116.6C-136.5 -126.3 -123.7 -132.7 -112.9 -141.5C-102 -150.3 -93 -161.5 -81.6 -169.4C-70.1 -177.3 -56.1 -181.8 -42.1 -184.5C-28.1 -187.3 -14.1 -188.3 0 -189.3L0 0Z" fill="#C42456"></path></g><g transform="translate(0, 0)"><path d="M189.3 0C184.9 13.3 180.6 26.6 178.4 40.7C176.2 54.8 176.2 69.7 170.5 82.1C164.9 94.6 153.6 104.7 143.1 114.1C132.6 123.5 122.9 132.2 112.9 141.5C102.8 150.8 92.4 160.8 80.3 166.7C68.1 172.6 54.2 174.3 40.5 177.4C26.8 180.5 13.4 184.9 0 189.3L0 0Z" fill="#C42456"></path></g></svg>