<svg id="visual" viewBox="0 0 900 600" width="900" height="600" xmlns="http://www.w3.org/2000/svg" xmlns:xlink="http://www.w3.org/1999/xlink" version="1.1"><rect x="0" y="0" width="900" height="600" fill="#0c1145"></rect><defs><linearGradient id="grad1_0" x1="33.3%" y1="100%" x2="100%" y2="0%"><stop offset="20%" stop-color="#c42456" stop-opacity="1"></stop><stop offset="80%" stop-color="#c42456" stop-opacity="1"></stop></linearGradient></defs><defs><linearGradient id="grad1_1" x1="33.3%" y1="100%" x2="100%" y2="0%"><stop offset="20%" stop-color="#c42456" stop-opacity="1"></stop><stop offset="80%" stop-color="#0c1145" stop-opacity="1"></stop></linearGradient></defs><defs><linearGradient id="grad2_0" x1="0%" y1="100%" x2="66.7%" y2="0%"><stop offset="20%" stop-color="#c42456" stop-opacity="1"></stop><stop offset="80%" stop-color="#c42456" stop-opacity="1"></stop></linearGradient></defs><defs><linearGradient id="grad2_1" x1="0%" y1="100%" x2="66.7%" y2="0%"><stop offset="20%" stop-color="#0c1145" stop-opacity="1"></stop><stop offset="80%" stop-color="#c42456" stop-opacity="1"></stop></linearGradient></defs><g transform="translate(900, 600)"><path d="M-189.3 0C-186.1 -13.8 -182.8 -27.5 -179.4 -40.9C-176 -54.4 -172.3 -67.4 -167.6 -80.7C-162.8 -94 -156.9 -107.4 -148 -118C-139.1 -128.6 -127.2 -136.3 -116 -145.4C-104.8 -154.5 -94.3 -165 -81.6 -169.4C-68.8 -173.8 -53.8 -172.2 -39.8 -174.5C-25.9 -176.8 -12.9 -183.1 0 -189.3L0 0Z" fill="#70135f"></path><path d="M-94.6 0C-93 -6.9 -91.4 -13.8 -89.7 -20.5C-88 -27.2 -86.2 -33.7 -83.8 -40.4C-81.4 -47 -78.5 -53.7 -74 -59C-69.5 -64.3 -63.6 -68.2 -58 -72.7C-52.4 -77.3 -47.2 -82.5 -40.8 -84.7C-34.4 -86.9 -26.9 -86.1 -19.9 -87.3C-12.9 -88.4 -6.5 -91.5 0 -94.6L0 0Z" fill="#c42456"></path></g><g transform="translate(0, 0)"><path d="M189.3 0C189.3 14.5 189.4 29.1 184.5 42.1C179.7 55.2 170.1 66.7 162.2 78.1C154.3 89.5 148.2 100.8 141.5 112.9C134.8 125 127.6 137.9 117.2 147C106.8 156.1 93.3 161.3 80.3 166.7C67.2 172 54.7 177.5 41.4 181.3C28.1 185.1 14 187.2 0 189.3L0 0Z" fill="#70135f"></path><path d="M94.6 0C94.7 7.3 94.7 14.5 92.3 21.1C89.9 27.6 85 33.4 81.1 39C77.1 44.7 74.1 50.4 70.8 56.4C67.4 62.5 63.8 68.9 58.6 73.5C53.4 78 46.7 80.7 40.1 83.3C33.6 86 27.3 88.8 20.7 90.7C14 92.6 7 93.6 0 94.6L0 0Z" fill="#c42456"></path></g></svg>