<svg id="visual" viewBox="0 0 350 120" width="350" height="120" xmlns="http://www.w3.org/2000/svg" xmlns:xlink="http://www.w3.org/1999/xlink" version="1.1"><rect x="0" y="0" width="350" height="120" fill="#1b1f50"></rect><path d="M0 87L8.3 87.7C16.7 88.3 33.3 89.7 50 89.5C66.7 89.3 83.3 87.7 100 86.2C116.7 84.7 133.3 83.3 150 85.3C166.7 87.3 183.3 92.7 200 94.5C216.7 96.3 233.3 94.7 250 93.2C266.7 91.7 283.3 90.3 300 88.3C316.7 86.3 333.3 83.7 341.7 82.3L350 81L350 121L341.7 121C333.3 121 316.7 121 300 121C283.3 121 266.7 121 250 121C233.3 121 216.7 121 200 121C183.3 121 166.7 121 150 121C133.3 121 116.7 121 100 121C83.3 121 66.7 121 50 121C33.3 121 16.7 121 8.3 121L0 121Z" fill="#28186A" stroke-linecap="round" stroke-linejoin="miter"></path></svg>